<svg xmlns="http://www.w3.org/2000/svg" viewBox="0 0 512 512">
  <defs>
    <linearGradient id="bg" x1="0" y1="0" x2="1" y2="1">
      <stop offset="0" stop-color="#ffffff"/>
      <stop offset="1" stop-color="#eaf3ff"/>
    </linearGradient>
    <linearGradient id="blue" x1="0" y1="0" x2="1" y2="1">
      <stop offset="0" stop-color="#0a73d9"/>
      <stop offset="1" stop-color="#083f88"/>
    </linearGradient>
    <filter id="shadow" x="-20%" y="-20%" width="140%" height="140%">
      <feDropShadow dx="0" dy="12" stdDeviation="12" flood-color="#001a3a" flood-opacity="0.35"/>
    </filter>
  </defs>
  <rect width="512" height="512" rx="108" fill="url(#bg)"/>
  <rect x="18" y="18" width="476" height="476" rx="92" fill="none" stroke="#0b2447" stroke-width="10" opacity="0.15"/>
  <g filter="url(#shadow)">
    <path d="M256 55 L407 115 L382 315 Q335 405 256 452 Q177 405 130 315 L105 115 Z" fill="url(#blue)" stroke="#ffffff" stroke-width="18"/>
    <path d="M256 80 L381 130 L358 304 Q319 379 256 421 Q193 379 154 304 L131 130 Z" fill="#0b5fb3" opacity="0.55"/>
  </g>
  <g stroke="#ffffff" stroke-width="28" stroke-linecap="round" stroke-linejoin="round" fill="none">
    <path d="M176 244 L232 299 L342 184"/>
  </g>
  <g stroke="#0b2447" stroke-width="10" stroke-linecap="round" opacity="0.95">
    <path d="M211 358 L166 448"/>
    <path d="M301 358 L346 448"/>
    <path d="M184 405 H328"/>
    <path d="M197 377 H315"/>
    <path d="M171 433 H341"/>
  </g>
  <g fill="#0b2447">
    <text x="256" y="112" text-anchor="middle" font-size="42" font-family="Arial Black, Arial, sans-serif" font-weight="900">ST</text>
  </g>
</svg>
