<svg xmlns="http://www.w3.org/2000/svg" viewBox="0 0 512 512">
  <defs>
    <linearGradient id="bg" x1="0" x2="1" y1="0" y2="1">
      <stop offset="0" stop-color="#082b55"/>
      <stop offset="1" stop-color="#03111f"/>
    </linearGradient>
    <radialGradient id="glow" cx="50%" cy="38%" r="45%">
      <stop offset="0" stop-color="#7dff91"/>
      <stop offset="0.45" stop-color="#10c957"/>
      <stop offset="1" stop-color="#007a33"/>
    </radialGradient>
    <filter id="softGlow" x="-50%" y="-50%" width="200%" height="200%">
      <feGaussianBlur stdDeviation="10" result="blur"/>
      <feMerge><feMergeNode in="blur"/><feMergeNode in="SourceGraphic"/></feMerge>
    </filter>
  </defs>
  <rect width="512" height="512" rx="108" fill="url(#bg)"/>
  <path d="M84 448h344" stroke="#ffcc00" stroke-width="18" stroke-linecap="round"/>
  <path d="M126 448l62-76M386 448l-62-76" stroke="#d7dee8" stroke-width="14" stroke-linecap="round"/>
  <path d="M176 382h160" stroke="#d7dee8" stroke-width="14" stroke-linecap="round"/>
  <rect x="190" y="72" width="132" height="234" rx="48" fill="#111923" stroke="#e7eef7" stroke-width="16"/>
  <circle cx="256" cy="148" r="42" fill="#26313d" stroke="#778493" stroke-width="10"/>
  <circle cx="256" cy="228" r="54" fill="url(#glow)" filter="url(#softGlow)" stroke="#e9fff0" stroke-width="10"/>
  <path d="M176 126h-48c-20 0-36 16-36 36v18h78M336 126h48c20 0 36 16 36 36v18h-78" fill="none" stroke="#d7dee8" stroke-width="16" stroke-linecap="round"/>
  <path d="M226 306h60v104h-60z" fill="#111923" stroke="#e7eef7" stroke-width="14"/>
  <text x="256" y="72" text-anchor="middle" font-family="Arial, Helvetica, sans-serif" font-weight="900" font-size="36" fill="#ffffff">GREEN</text>
  <text x="256" y="490" text-anchor="middle" font-family="Arial, Helvetica, sans-serif" font-weight="900" font-size="42" fill="#ffffff">SIGNAL</text>
</svg>